<svg width="45" height="45" viewBox="0 0 45 45" fill="none" xmlns="http://www.w3.org/2000/svg">
<g clip-path="url(#clip0_40_217)">
<path d="M26.2687 28.0683C25.9401 28.0683 25.6713 27.7995 25.6713 27.4709C25.6713 27.1423 25.9401 26.8735 26.2687 26.8735H30.2616C30.5902 26.8735 30.8591 27.1423 30.8591 27.4709C30.8591 27.7995 30.5902 28.0683 30.2616 28.0683H26.2687ZM26.2687 24.5336C25.9401 24.5336 25.6713 24.2647 25.6713 23.9361C25.6713 23.6075 25.9401 23.3387 26.2687 23.3387H32.5817C32.9103 23.3387 33.1792 23.6075 33.1792 23.9361C33.1792 24.2647 32.9103 24.5336 32.5817 24.5336H26.2687ZM17.4863 30.8164V27.6402C17.4863 27.3116 17.7552 27.0427 18.0838 27.0427C18.4124 27.0427 18.6812 27.3116 18.6812 27.6402V30.8164H21.7083V28.3869C21.7083 24.9816 18.9202 22.1937 15.5148 22.1937H10.2274C6.822 22.1937 4.03394 24.9816 4.03394 28.3869V33.2858H7.07093V27.6302C7.07093 27.3016 7.33978 27.0328 7.66838 27.0328C7.99697 27.0328 8.26582 27.3016 8.26582 27.6302V30.8065H17.4863V30.8164ZM20.1947 32.8278C21.6884 32.8278 22.9032 34.0425 22.9032 35.5361V35.7651H29.475C34.0853 35.7651 34.8022 38.3041 37.6998 39.0808C39.0441 39.4392 40.7567 39.1405 42.0014 38.3938L38.0384 37.3383C37.8193 37.2786 37.6699 37.1093 37.6102 36.9101L36.6941 33.5148C36.6344 33.2957 36.7041 33.0866 36.8534 32.9373L39.3428 30.448C39.512 30.2887 39.7411 30.2389 39.9502 30.3086L43.953 31.374C43.2759 29.9701 42.1209 29.0441 40.5078 28.6159C36.3356 27.4908 34.5533 32.0113 29.7937 32.0113C22.6144 32.0113 15.4451 32.0113 8.26582 32.0113V35.775H17.4863V35.546C17.4863 34.0425 18.7011 32.8278 20.1947 32.8278ZM22.9131 36.9599V37.7864C22.9131 40.1761 20.0056 41.4207 18.2929 39.6981C17.805 39.2102 17.4963 38.5331 17.4963 37.7864V36.9599H8.26582V37.7864C8.26582 40.1761 5.35827 41.4207 3.63564 39.6981C3.14773 39.2102 2.83905 38.5331 2.83905 37.7864V36.9599H0.289965C0.00120151 36.9599 -0.247733 36.7508 -0.29752 36.4621C-0.44688 35.6058 -0.516582 34.7395 -0.496667 33.8633C-0.476752 33.007 -0.377179 32.1606 -0.197946 31.3243C-0.158116 31.0355 0.0908178 30.8065 0.399496 30.8065H2.83905V5.09742C2.83905 4.76884 3.1079 4.5 3.43649 4.5H37.6799C38.0085 4.5 38.2773 4.76884 38.2773 5.09742V27.2917C40.1991 26.983 42.4296 27.7596 43.7937 29.1138C44.6102 29.9203 45.1479 30.926 45.4666 32.0511C45.6259 32.539 45.1877 32.9373 44.7496 32.8178L39.9402 31.5333L37.9388 33.5347L38.6657 36.2729L43.4751 37.5673C43.9132 37.6868 44.0725 38.2444 43.734 38.563C42.1607 40.1163 39.4623 40.8034 37.3812 40.2358C34.1649 39.3795 33.6272 36.9599 29.4651 36.9599H22.9131ZM21.2701 34.4607C20.3043 33.4949 18.6812 34.2018 18.6812 35.5261V37.7864C18.6812 39.1107 20.3043 39.8176 21.2701 38.8518C21.539 38.573 21.7182 38.1946 21.7182 37.7864V35.5261C21.7182 35.1179 21.539 34.7395 21.2701 34.4607ZM4.04389 34.4806V37.7963C4.04389 39.1206 5.66694 39.8276 6.63281 38.8617C6.90166 38.5829 7.08089 38.2046 7.08089 37.7963V34.4806H4.04389ZM2.84901 35.7651V32.0013H0.887407C0.658388 33.246 0.628516 34.5105 0.797791 35.7651H2.84901ZM4.04389 24.3643C5.30848 22.4326 7.4294 21.1382 9.81917 21.0088C7.16055 19.1169 6.83196 15.2835 9.15202 12.9734C11.2132 10.9123 14.5589 10.9123 16.6201 12.9734C18.9302 15.2835 18.6016 19.1169 15.9529 21.0088C19.8363 21.2278 22.9231 24.4738 22.9231 28.3869V30.8164H29.8036C32.8506 30.8164 34.613 28.5662 37.0924 27.6202V10.0262H4.04389V24.3643ZM12.8761 12.615C10.6158 12.615 8.79356 14.4471 8.79356 16.6974C8.79356 18.9477 10.6257 20.7798 12.8761 20.7798C15.1364 20.7798 16.9586 18.9477 16.9586 16.6974C16.9586 14.4471 15.1364 12.615 12.8761 12.615ZM37.0824 8.83131V5.69484H4.04389V8.83131H37.0824ZM24.0582 18.629C24.3171 18.8282 24.3669 19.2065 24.1677 19.4654C23.9686 19.7243 23.5902 19.7741 23.3313 19.575L20.364 17.3047C20.0454 17.0558 20.0553 16.5878 20.374 16.3489L23.3313 14.0787C23.5902 13.8795 23.9686 13.9293 24.1677 14.1882C24.3669 14.4471 24.3171 14.8254 24.0582 15.0246L21.7083 16.8268L24.0582 18.629ZM28.081 13.9393C28.2403 13.6505 28.6087 13.5509 28.8875 13.7202C29.1763 13.8795 29.2759 14.2479 29.1066 14.5367L26.1194 19.7144C25.9601 20.0031 25.5916 20.1027 25.3029 19.9334C25.0141 19.7741 24.9145 19.4057 25.0838 19.1169L28.081 13.9393ZM30.8491 19.575C30.5902 19.7741 30.2119 19.7243 30.0127 19.4654C29.8136 19.2065 29.8634 18.8282 30.1222 18.629L32.4722 16.8268L30.1222 15.0246C29.8634 14.8254 29.8136 14.4471 30.0127 14.1882C30.2119 13.9293 30.5902 13.8795 30.8491 14.0787L33.8065 16.3489C34.1152 16.5878 34.1351 17.0558 33.8164 17.3047L30.8491 19.575Z" fill="#FFDB70"/>
</g>
<defs>
<clipPath id="clip0_40_217">
<rect width="45" height="45" fill="white"/>
</clipPath>
</defs>
</svg>
